<?xml version="1.0" encoding="utf-8"?>
<!-- Generator: Adobe Illustrator 25.2.3, SVG Export Plug-In . SVG Version: 6.00 Build 0)  -->
<svg version="1.1" id="Layer_1" xmlns="http://www.w3.org/2000/svg" xmlns:xlink="http://www.w3.org/1999/xlink" x="0px" y="0px"
	 viewBox="0 0 1005 186" style="enable-background:new 0 0 1005 186;" xml:space="preserve">
<style type="text/css">
	.st0{fill:#1D2023;}
</style>
<path class="st0" d="M109.2,96.5c-3.4-2.4-7.2-4.3-11.1-5.6c-4.2-1.5-8.7-3-13.5-4.5c-1.5-0.4-3-0.8-4.5-1c-1.5-0.3-3-0.7-4.5-1.1
	c-1.3-0.4-2.5-1-3.6-1.8c-1-0.7-1.5-1.8-1.5-3c0-0.8,0.2-1.6,0.7-2.3c0.5-0.7,1.2-1.3,1.9-1.7c0.9-0.5,1.8-0.8,2.8-1
	c1-0.2,2.1-0.4,3.1-0.4c1.2,0,2.3,0.1,3.4,0.4c1.3,0.2,2.5,0.6,3.8,1c1.3,0.4,2.5,0.9,3.6,1.6c1.1,0.6,4.6,3.1,5.4,3.6
	c0.7,0.4,1.4,0.6,2.2,0.6c0.5,0,0.9-0.1,1.4-0.2c0.5-0.2,1-0.5,1.4-0.9l2.3-2.3l3.8-3.9l3.8-3.9l2.7-2.6c0.6-0.5,1.1-1.1,1.5-1.8
	c0.3-0.6,0.4-1.2,0.5-1.8c-0.1-0.9-0.4-1.8-1.1-2.5c-2.4-2.3-5-4.3-7.8-6c-2.7-1.5-5.6-2.8-8.5-3.7c-2.9-0.9-6-1.5-9-1.8
	c-3.2-0.3-6.5-0.5-9.7-0.5c-5.3,0-10.5,0.6-15.6,2c-4.5,1.2-8.8,3.1-12.7,5.7c-3.4,2.2-6.2,5.2-8.2,8.7c-2,3.4-3,7.3-3,11.3
	c0,3.4,0.6,6.8,1.7,10.1c1.2,3.3,3.1,6.3,5.6,8.7c3.1,3,6.6,5.5,10.5,7.3c5.2,2.5,10.6,4.5,16.2,5.8c3.3,0.8,6.6,1.9,9.8,3.1
	c2.4,1,3.6,2.4,3.6,4.2c0,0.9-0.3,1.7-0.9,2.3c-0.7,0.6-1.6,1.1-2.5,1.3c-1.2,0.3-2.4,0.6-3.6,0.7c-1.3,0.2-2.7,0.2-4.1,0.2
	c-2.5-0.1-5-0.7-7.3-1.9c-3.3-1.5-6.4-3.4-9.2-5.7c-0.7-0.6-1.4-1.1-2.2-1.5c-0.5-0.4-1.2-0.6-1.8-0.6l-1.3,0.4
	c-0.5,0.2-1,0.5-1.4,0.9l-13,13.5c-0.9,0.8-1.5,2-1.6,3.2c0.1,1.6,0.8,3,1.9,4.1c4.6,5,10.3,8.9,16.6,11.3
	c6.3,2.4,12.9,3.6,19.6,3.6c5.6,0,11.2-0.7,16.7-2.1c4.9-1.2,9.6-3.3,13.8-6.1c3.8-2.5,7-5.9,9.3-9.8c2.4-4.1,3.5-8.8,3.4-13.5
	c0.1-4.2-0.8-8.4-2.8-12.1C114.7,101.3,112.2,98.6,109.2,96.5z"/>
<path class="st0" d="M224,79.7c-2.6-6-6.3-11.4-10.9-16c-4.7-4.5-10.2-8.2-16.2-10.7c-12.8-5.2-27.2-5.2-40,0
	c-6,2.5-11.6,6.1-16.2,10.7c-4.7,4.6-8.4,10-11,16c-6.3,14.4-5.2,31,2.9,44.4c4.5,7.3,10.9,13.3,18.4,17.4
	c7.9,4.4,16.8,6.7,25.8,6.7c13.4,0,26.3-5.1,36.1-14.3c4.6-4.4,8.3-9.7,10.9-15.6c2.7-6.1,4.1-12.6,4-19.3
	C227.8,92.4,226.6,85.8,224,79.7z M192.5,106.7c-0.7,2.1-1.9,4-3.3,5.7c-1.4,1.6-3.2,2.9-5.2,3.8c-2.2,0.9-4.5,1.4-6.9,1.3
	c-2.4,0-4.7-0.4-6.9-1.3c-2-0.9-3.8-2.2-5.2-3.8c-1.5-1.7-2.6-3.6-3.3-5.7c-0.8-2.3-1.2-4.7-1.2-7.2c0-2.4,0.4-4.8,1.2-7.1
	c0.8-2.1,1.9-4,3.3-5.7c3-3.5,7.5-5.5,12.1-5.4c2.4-0.1,4.7,0.4,6.9,1.4c2,0.9,3.7,2.3,5.2,3.9c1.5,1.7,2.6,3.7,3.3,5.8
	c0.8,2.3,1.2,4.7,1.2,7.1C193.7,102,193.3,104.4,192.5,106.7L192.5,106.7z"/>
<path class="st0" d="M311.6,119.2c-0.5-0.8-1-1.6-1.5-2.3c-0.4-0.7-0.9-1.4-1.4-2.1c-0.4-0.5-0.9-1-1.5-1.4
	c-0.5-0.4-1.1-0.6-1.8-0.7h-1.1c-0.5,0.1-1,0.3-1.4,0.5l0,0c-1,0.7-2,1.3-3.1,1.8c-1.2,0.6-2.4,1-3.6,1.4c-1.3,0.4-2.6,0.7-3.9,0.9
	c-1.2,0.2-2.4,0.3-3.6,0.4c-2.3,0-4.6-0.4-6.8-1.4c-2-0.9-3.7-2.2-5.2-3.8c-1.5-1.7-2.6-3.7-3.4-5.8c-0.8-2.3-1.2-4.7-1.2-7.1
	c0-2.4,0.4-4.8,1.2-7c0.8-2.1,1.9-4.1,3.4-5.8c1.3-1.7,3-3.2,4.9-4.2c2.1-1,4.4-1.5,6.8-1.4c1.2,0,2.4,0.1,3.6,0.4
	c2.6,0.4,5.1,1.2,7.5,2.2c1,0.5,2,1,2.9,1.7c0.9,0.6,2,1,3.1,1.1c1.8-0.2,3.3-1.3,3.9-2.9l9.7-17.3c0.4-0.8,0.6-1.7,0.6-2.6
	c0.1-1.2-0.3-2.4-1.1-3.3c-1-1-2.1-1.8-3.3-2.5c-3.9-2.4-8.1-4.4-12.4-6.1c-4.8-1.8-9.9-2.6-15-2.6c-6.6-0.1-13.2,1.3-19.3,3.9
	c-6,2.5-11.4,6.2-16,10.7c-4.5,4.6-8.1,10-10.6,16c-2.7,6.1-4,12.7-4,19.4c-0.1,6.6,1.3,13.2,4,19.3c2.6,5.8,6.3,11,10.8,15.4
	c4.6,4.5,10.1,8,16,10.5c6.1,2.6,12.7,3.8,19.3,3.8c5.2,0,10.4-0.8,15.4-2.5c4.7-1.7,9.2-3.8,13.5-6.4c0.9-0.5,1.7-1.2,2.4-1.9
	c0.8-0.8,1.2-1.8,1.2-2.9c-0.1-0.9-0.4-1.8-1-2.5L311.6,119.2z"/>
<path class="st0" d="M362.5,51.1h-24.5c-1.4-0.1-2.7,0.4-3.6,1.5c-0.8,1-1.2,2.3-1.2,3.6v85.6c-0.3,2.5,1.5,4.7,4,4.9
	c0.3,0,0.6,0,0.9,0h24.4c3.6,0,5.4-1.6,5.4-4.9V56.1c0-1.3-0.4-2.5-1.2-3.6C365.5,51.5,364,50.9,362.5,51.1z"/>
<path class="st0" d="M583.7,51.1h-24.5c-1.4-0.1-2.7,0.4-3.7,1.5c-0.8,1-1.2,2.3-1.2,3.6v85.6c-0.3,2.5,1.5,4.7,4,4.9
	c0.3,0,0.6,0,0.9,0h24.4c3.6,0,5.4-1.6,5.4-4.9V56.1c0-1.3-0.4-2.5-1.2-3.6C586.7,51.5,585.2,50.9,583.7,51.1z"/>
<path class="st0" d="M478.7,52.7c-1.2-1-2.6-1.4-4.1-1.3h-15.5c-0.8-0.1-1.6-0.1-2.4,0c-0.6,0.1-1.1,0.3-1.5,0.7
	c-0.4,0.5-0.8,1.1-1,1.7c-0.3,0.8-0.7,1.8-1.1,3.2l-2.9,9c-0.9-2.1-2.1-4.1-3.4-5.9c-1.5-2-3.2-3.7-5.2-5.2
	c-2.2-1.6-4.6-2.8-7.1-3.7c-2.9-1-5.9-1.4-9-1.4c-6.7-0.1-13.3,1.2-19.5,3.7c-5.7,2.3-10.8,5.8-15.1,10.2c-4.3,4.5-7.6,9.8-9.8,15.5
	c-2.4,6.3-3.6,13-3.5,19.8c-0.1,6.6,1.1,13.3,3.5,19.5c4.4,11.7,13.5,21.1,25,25.9c6.1,2.5,12.7,3.8,19.3,3.7h1.1
	c2.8,0.1,5.5-0.4,8.2-1.3c2.1-0.8,4-1.9,5.8-3.2c1.5-1.2,2.9-2.7,4-4.3l3-4.5l2.2,6.2l0.9,2.4c0.2,0.7,0.6,1.3,1,1.8
	c0.4,0.5,1,0.9,1.6,1.2c0.8,0.3,1.7,0.5,2.6,0.4h19.1c1.5,0,2.9-0.5,4.1-1.4c1.3-1,1.9-2.6,1.8-4.2V56.7
	C480.5,55.1,479.8,53.7,478.7,52.7z M445,106.7c-0.8,2.1-2.1,4.1-3.6,5.7c-1.6,1.6-3.5,2.9-5.6,3.8c-2.2,0.9-4.7,1.4-7.1,1.3
	c-2.3,0-4.7-0.4-6.8-1.3c-2-0.9-3.8-2.2-5.2-3.8c-1.5-1.7-2.6-3.6-3.3-5.7c-0.8-2.3-1.2-4.7-1.2-7.2c0-2.4,0.4-4.8,1.2-7.1
	c0.7-2.1,1.9-4.1,3.3-5.8c3-3.5,7.4-5.5,12-5.4c4.8,0,9.4,1.9,12.7,5.4c1.6,1.7,2.8,3.6,3.7,5.8c0.9,2.3,1.3,4.7,1.3,7.1
	C446.3,102,445.9,104.4,445,106.7z"/>
<path class="st0" d="M532.6,3.9c-1.1-1.3-2.5-1.5-4.1-1.4H505c-1.4-0.1-2.8,0.4-3.7,1.4c-0.8,1-1.2,2.3-1.2,3.6v134.3
	c0,2.6,1.5,4.9,4,4.9c0.3,0,0.6,0,0.9,0h23.5c1.4,0.1,2.8-0.4,3.8-1.3c1-1,1.5-2.3,1.4-3.7V7.3C533.8,6.1,533.4,4.9,532.6,3.9z"/>
<path class="st0" d="M648.8,49.2V20c0.1-1.3-0.4-2.5-1.2-3.5c-0.8-0.9-1.9-1.4-3.1-1.3L620.3,19c-1.5,0.2-2.9,0.9-3.9,2
	c-0.9,1-1.3,2.2-1.3,3.5v24.7h-5.5c-2.7,0-4,1-4.9,2c-0.7,0.9-1,2-0.9,3.1v15.6c-0.1,3.1,1.5,5.6,4.4,5.9c0.5,0,6.9,0,6.9,0v65.9
	c0,3.7,1.6,5,4,5h25.8c2.7,0,4-1.7,4-5V75.9h8.8c1.6,0.2,3.2-0.4,4.3-1.6c1-1.2,1.5-2.8,1.3-4.3V54.8c0-2.5-0.5-3.3-1.6-4.3
	c-1.2-1-2.7-1.4-4.3-1.3H648.8z"/>
<path class="st0" d="M775.8,51.4h-26.3c-1.3-0.1-2.7,0.3-3.8,1c-1.1,0.8-1.9,1.9-2.2,3.2l-16.8,51.1c-1.4-3.9-2.9-8-4.5-12.4
	l-4.5-13.2L713,67.9c-1.5-4.4-2.9-8.5-4.2-12.4c-0.3-1.2-1-2.3-1.9-3.1c-1.1-0.8-2.4-1.2-3.7-1.1h-26.8c-3,0-4.5,1.2-4.5,3.5
	c0,0.8,0.1,1.6,0.4,2.3l37.6,91.1L699.7,178c-0.3,0.8-0.4,1.6-0.5,2.4c-0.2,1.2,0.5,2.4,1.7,2.9c1,0.4,2.1,0.6,3.2,0.6h24.3
	c1.3,0,2.5-0.4,3.5-1.2c1-0.8,1.7-1.8,2-3.1c1.6-4.7,3.5-10,5.7-16.1s4.7-12.5,7.4-19.5c2.7-6.9,5.5-14.2,8.4-21.7
	c2.9-7.5,5.8-15,8.7-22.5l8.6-22.5l7.8-20.7c0.5-1.1,0.4-2.4-0.1-3.5C779.1,51.2,775.8,51.4,775.8,51.4z"/>
<path class="st0" d="M805.1,124.9c-1.3-1.3-2.8-2.3-4.4-3c-1.8-0.7-3.6-1.1-5.5-1.1c-1.8,0-3.7,0.4-5.3,1.1c-1.6,0.7-3.1,1.7-4.4,3
	c-1.3,1.3-2.3,2.7-3,4.4c-0.7,1.7-1.1,3.5-1.1,5.4c0,1.8,0.4,3.5,1.1,5.1c0.7,1.6,1.7,3.1,3,4.3c1.3,1.3,2.7,2.3,4.4,3
	c1.7,0.7,3.5,1.1,5.3,1.1c1.9,0,3.8-0.4,5.5-1.1c1.6-0.7,3.1-1.7,4.4-3c2.6-2.5,4-6,4-9.7c0-1.8-0.4-3.7-1.1-5.4
	C807.3,127.5,806.3,126.1,805.1,124.9z"/>
<path class="st0" d="M847.3,51.1h-8.1c-1.2-0.1-2.4,0.4-3.3,1.2c-0.8,0.9-1.2,2-1.1,3.2v87c-0.3,2.1,1.2,4,3.3,4.3c0,0,0,0,0,0
	c0.4,0.1,9.3,0,9.3,0c1.2,0.1,2.3-0.3,3.2-1.1c0.8-0.8,1.3-2,1.2-3.2V55.2c0-1.1-0.4-2.1-1.2-2.9C849.8,51.4,848.5,51,847.3,51.1z"
	/>
<path class="st0" d="M851.8,15.7c-1.1-1.1-2.5-2-3.9-2.6c-1.6-0.7-3.2-1-4.9-1c-1.6,0-3.2,0.3-4.7,1c-1.4,0.6-2.8,1.5-3.9,2.6
	c-1.1,1.1-2,2.4-2.7,3.9c-0.7,1.5-1,3.1-1,4.8c0,1.6,0.4,3.1,1,4.5c1.3,2.9,3.6,5.2,6.5,6.4c1.5,0.7,3.1,1,4.7,1
	c1.7,0,3.4-0.3,4.9-1c1.5-0.6,2.8-1.5,3.9-2.6c2.3-2.3,3.6-5.4,3.5-8.6c0-1.6-0.3-3.3-1-4.8c-0.5-1.4-1.3-2.7-2.3-3.9L851.8,15.7z"
	/>
<path class="st0" d="M967.6,79.4L967.6,79.4C962.5,67.5,953,58,941,53c-12.4-5.2-26.4-5.2-38.8,0c-5.9,2.5-11.2,6.1-15.8,10.6
	c-19.4,19.2-19.5,50.5-0.2,69.9c0.1,0.1,0.1,0.1,0.2,0.2c4.5,4.5,9.9,8.1,15.8,10.6c12.4,5.1,26.4,5.1,38.8,0
	c25.2-10.4,37.2-39.2,26.8-64.3C967.7,79.8,967.6,79.6,967.6,79.4L967.6,79.4z M953.2,111.8c-1.8,4-4.3,7.7-7.4,10.8
	c-3.2,3-6.9,5.5-11,7.2c-4.2,1.8-8.8,2.7-13.4,2.7c-4.5,0-9-0.9-13.2-2.7c-4-1.7-7.7-4.2-10.8-7.3c-3.1-3.1-5.6-6.8-7.3-10.8
	c-3.5-8.4-3.5-17.8,0-26.2c3.5-8.2,10-14.7,18.2-18.2c8.5-3.6,18.1-3.6,26.6,0c8.2,3.5,14.7,10,18.3,18.2
	C956.7,93.8,956.7,103.4,953.2,111.8L953.2,111.8z"/>
<ellipse class="st0" cx="350.4" cy="20.9" rx="19" ry="18.8"/>
<ellipse class="st0" cx="571.6" cy="20.9" rx="19" ry="18.8"/>
</svg>
